<svg width="28" height="28" viewBox="0 0 28 28" fill="none" xmlns="http://www.w3.org/2000/svg">
<path fill-rule="evenodd" clip-rule="evenodd" d="M6.97901 0.14978C10.8233 0.14978 13.9397 3.26619 13.9397 7.11048V0.14978H20.9004C24.7446 0.14978 27.8611 3.26619 27.8611 7.11048C27.8611 10.9547 24.7446 14.0712 20.9004 14.0712C24.7446 14.0712 27.8611 17.1876 27.8611 21.0319C27.8611 22.9407 27.0927 24.6701 25.8484 25.9276L25.8224 25.9538L25.7993 25.9768C24.5415 27.2229 22.8108 27.9926 20.9004 27.9926C19.003 27.9926 17.2829 27.2334 16.0272 26.0021C16.0109 25.9861 15.9946 25.97 15.9784 25.9538C15.9632 25.9386 15.948 25.9233 15.9329 25.9079C14.7001 24.6521 13.9397 22.9307 13.9397 21.0319C13.9397 24.8761 10.8233 27.9926 6.97901 27.9926C3.13472 27.9926 0.0183105 24.8761 0.0183105 21.0319V14.0712H6.97901C3.13472 14.0712 0.0183105 10.9547 0.0183105 7.11048C0.0183105 3.26619 3.13472 0.14978 6.97901 0.14978ZM12.5476 7.11048C12.5476 10.1859 10.0544 12.679 6.97901 12.679V1.54192C10.0544 1.54192 12.5476 4.03505 12.5476 7.11048ZM26.469 21.0319C26.469 17.9564 23.9758 15.4633 20.9004 15.4633C17.825 15.4633 15.3318 17.9564 15.3318 21.0319H26.469ZM1.41045 15.4633V21.0319C1.41045 24.1073 3.90358 26.6004 6.97901 26.6004C10.0544 26.6004 12.5476 24.1073 12.5476 21.0319V15.4633H1.41045ZM15.3318 12.679V1.54192H20.9004C23.9758 1.54192 26.469 4.03505 26.469 7.11048C26.469 10.1859 23.9758 12.679 20.9004 12.679H15.3318Z" fill="#263238"/>
</svg>
