<svg width="28" height="20" viewBox="0 0 28 20" fill="none" xmlns="http://www.w3.org/2000/svg">
<path fill-rule="evenodd" clip-rule="evenodd" d="M7.04577 3.08354L0.0949707 9.96445C1.48526 11.3408 3.07345 12.5007 4.80502 13.4082C5.28364 14.665 6.03386 15.8437 7.05567 16.8552C10.9 20.6608 17.1328 20.6608 20.9771 16.8552C21.9989 15.8437 22.7491 14.665 23.2277 13.4081C24.9593 12.5007 26.5475 11.3408 27.9377 9.96445L20.9926 3.08914C20.9874 3.08399 20.9823 3.07885 20.9771 3.07371C17.1328 -0.731928 10.9 -0.731928 7.05567 3.07371C7.05237 3.07699 7.04907 3.08026 7.04577 3.08354ZM20.312 14.6496C18.2864 15.3263 16.16 15.6729 14.0164 15.6729C11.8727 15.6729 9.74639 15.3263 7.72083 14.6496C7.9403 14.9379 8.1826 15.2145 8.4478 15.477C11.5232 18.5216 16.5095 18.5216 19.5849 15.477C19.8501 15.2145 20.0925 14.9379 20.312 14.6496ZM8.59057 4.31404C9.11283 4.65561 9.66815 4.94789 10.2492 5.18619C11.4435 5.67591 12.7236 5.92797 14.0164 5.92797C15.3091 5.92797 16.5892 5.67591 17.7835 5.18619C18.3646 4.94789 18.9199 4.6556 19.4422 4.31403C16.4051 1.45328 11.6276 1.45329 8.59057 4.31404Z" fill="#3B4158"/>
</svg>
