<svg width="39" height="22" viewBox="0 0 39 22" fill="none" xmlns="http://www.w3.org/2000/svg">
<g clip-path="url(#clip0_211_2053)">
<path d="M38.5802 7.95026C38.5841 7.92123 38.5841 7.89189 38.5802 7.86286C38.5839 7.83921 38.5839 7.8151 38.5802 7.79139L38.2965 5.75007C38.2557 5.50585 38.1462 5.27758 37.9806 5.09081L37.9319 5.03521L37.8429 4.94783L32.9331 0.801639L33.0708 0.936679C32.9581 0.804507 32.8167 0.698787 32.6569 0.627307C32.497 0.555826 32.3228 0.520401 32.1472 0.523645H30.6564C30.414 0.518936 30.1771 0.594496 29.984 0.738106C29.7811 0.595361 29.5369 0.520188 29.2872 0.523645H27.7964C27.6009 0.520535 27.408 0.568107 27.2373 0.661557C27.0666 0.755008 26.9241 0.891019 26.8242 1.05582C26.6702 1.29119 26.6124 1.57479 26.6621 1.85011L26.8485 3.13685C26.725 3.06824 26.5853 3.03264 26.4434 3.0336H19.2246C18.9656 3.0352 18.7125 3.10962 18.4954 3.24805C18.2854 3.37691 18.1168 3.56141 18.0093 3.78022L17.4502 3.3116C17.2302 3.11201 16.9398 3.00383 16.64 3.00977H5.31348C5.05356 3.01441 4.79941 3.0856 4.57622 3.21629C4.27087 3.3915 4.0471 3.67639 3.95235 4.01057L0.355083 15.8058C0.287869 16.0001 0.281257 16.2097 0.336094 16.4078C0.390931 16.6058 0.504732 16.7834 0.662961 16.9178C0.704191 16.9521 0.747482 16.9839 0.792595 17.0131C0.792595 17.0131 0.719666 16.9654 0.679156 16.9257L5.58897 21.0799C5.79666 21.2673 6.06821 21.3721 6.3505 21.3737H17.7662C18.0269 21.3671 18.2812 21.2931 18.5035 21.1593C18.6292 21.0919 18.7416 21.0032 18.8357 20.8971L18.8762 20.8415L18.941 20.7621L18.9896 20.6748L19.5243 21.1275C19.729 21.3075 19.9947 21.4066 20.2697 21.4055H31.7097C31.9701 21.397 32.2239 21.3232 32.4469 21.1911C32.5698 21.1196 32.6816 21.0313 32.7792 20.9289L32.8196 20.8733L32.8844 20.7939C32.9189 20.7437 32.9488 20.6905 32.9735 20.635C33 20.5869 33.0217 20.5364 33.0384 20.4842L36.3197 9.71359V9.61826C36.3237 9.5813 36.3237 9.54403 36.3197 9.50707V9.4356C36.3236 9.4119 36.3236 9.38778 36.3197 9.36408C36.3233 9.31386 36.3233 9.26343 36.3197 9.21315H37.3729C37.4646 9.2214 37.5568 9.2214 37.6484 9.21315H37.7213C37.7806 9.19582 37.8377 9.1718 37.8915 9.14168H37.9725L38.1183 9.03049L38.1831 8.98282L38.2965 8.83983V8.79222L38.3776 8.65717C38.3731 8.63091 38.3731 8.60402 38.3776 8.57776C38.3733 8.56487 38.3733 8.55093 38.3776 8.53803C38.3948 8.49147 38.4084 8.44365 38.4181 8.39504C38.4143 8.37938 38.4143 8.36304 38.4181 8.34738C38.4142 8.32373 38.4142 8.29956 38.4181 8.27591C38.4181 8.27591 38.5802 7.96613 38.5802 7.95026Z" fill="black"/>
<path d="M16.9722 3.9153C17.0152 3.95343 17.0453 4.00356 17.0583 4.05895C17.0714 4.11434 17.0668 4.17232 17.0452 4.22507L13.456 16.0123C13.4108 16.141 13.3183 16.2486 13.1967 16.3142C13.0978 16.3791 12.9833 16.4174 12.8645 16.4254H1.45699C1.35957 16.4208 1.26727 16.3812 1.19772 16.3142C1.15635 16.2766 1.12731 16.2279 1.11432 16.1742C1.10133 16.1204 1.10499 16.0641 1.12481 16.0123L4.72208 4.22507C4.76352 4.09475 4.85308 3.98428 4.97323 3.9153C5.07382 3.85506 5.1878 3.81963 5.30542 3.81203H16.7129C16.8096 3.81295 16.9023 3.84987 16.9722 3.9153ZM11.0173 13.6374L13.1643 6.59999H7.15268L5.01374 13.6374H11.0173ZM27.8612 4.03443C27.9002 4.07878 27.9488 4.11394 28.0035 4.13732C28.0583 4.1607 28.1176 4.17169 28.1772 4.16946H29.6599C29.7164 4.17 29.772 4.15643 29.8216 4.13003C29.8713 4.10362 29.9132 4.06525 29.9435 4.01855C29.9698 3.98207 29.9884 3.94077 29.9981 3.8971C30.0079 3.85344 30.0085 3.80831 30.0001 3.76438L29.7085 1.66745C29.6807 1.5704 29.6309 1.48079 29.5627 1.40534C29.5237 1.36099 29.4751 1.32583 29.4204 1.30245C29.3657 1.27907 29.3063 1.26809 29.2467 1.27031H27.764C27.7076 1.26977 27.6519 1.28334 27.6023 1.30975C27.5527 1.33615 27.5107 1.37452 27.4805 1.42123C27.4237 1.53243 27.3995 1.60391 27.4237 1.66745L27.7235 3.76438C27.7389 3.86648 27.7872 3.9611 27.8612 4.03443ZM32.5685 1.65157C32.5407 1.55451 32.4908 1.4649 32.4227 1.38945C32.3854 1.34527 32.3382 1.31011 32.2848 1.2867C32.2314 1.26328 32.1732 1.25223 32.1148 1.25442H30.624C30.5685 1.25287 30.5136 1.26608 30.4651 1.29265C30.4166 1.31921 30.3763 1.35816 30.3486 1.40534C30.2947 1.4758 30.2713 1.56432 30.2838 1.65157L30.5835 3.74849C30.6023 3.84952 30.6501 3.94319 30.7213 4.01855C30.7609 4.06202 30.8096 4.0966 30.8642 4.1199C30.9187 4.14321 30.9777 4.15469 31.0372 4.15357H32.528C32.5834 4.15429 32.638 4.14073 32.6863 4.11424C32.7347 4.08776 32.7751 4.04929 32.8035 4.00267C32.8317 3.96713 32.8513 3.92585 32.8612 3.88187C32.871 3.83789 32.8706 3.79232 32.8602 3.74849L32.5685 1.65157ZM26.5568 4.82873L26.411 3.79615H19.2246C19.1117 3.80225 19.0026 3.83791 18.9086 3.8994C18.8489 3.93131 18.797 3.97552 18.7564 4.029C18.7159 4.08249 18.6876 4.14395 18.6737 4.20918L18.0741 6.179C18.0502 6.22823 18.042 6.28346 18.0506 6.33734C18.0594 6.39122 18.0845 6.44123 18.1227 6.48085C18.191 6.54381 18.2802 6.58051 18.3739 6.58411H27.1078L24.9608 13.6215H16.2511C16.1388 13.624 16.0295 13.657 15.9352 13.7168C15.8206 13.7882 15.7369 13.8985 15.7002 14.0266L15.0926 15.9965C15.0728 16.047 15.0675 16.1019 15.0775 16.1552C15.0876 16.2085 15.1124 16.2579 15.1493 16.2983C15.2155 16.3654 15.3053 16.4052 15.4004 16.4094H26.8404C26.9587 16.3995 27.0728 16.3613 27.1726 16.2983C27.2922 16.2324 27.382 16.1246 27.4237 15.9965L30.7131 5.22587H27.0106C26.9518 5.227 26.8935 5.21631 26.8391 5.19445C26.7848 5.1726 26.7356 5.14002 26.6946 5.09878C26.6276 5.02675 26.5802 4.93934 26.5568 4.84461V4.82873Z" fill="white"/>
</g>
<defs>
<clipPath id="clip0_211_2053">
<rect width="38.2838" height="20.8821" fill="white" transform="translate(0.299316 0.523438)"/>
</clipPath>
</defs>
</svg>
